<svg id="Calque_1" data-name="Calque 1" xmlns="http://www.w3.org/2000/svg" viewBox="0 0 3809.45 360.35"><defs><style>.cls-1{fill:none;stroke:#010101;}.cls-2{fill:#010101;}</style></defs><g id="Groupe_100" data-name="Groupe 100"><path class="cls-1" d="M231.28,1318.34h3449.1a178.89,178.89,0,0,1,178.89,178.89h0a178.89,178.89,0,0,1-178.89,178.89H231.28A178.89,178.89,0,0,1,52.39,1497.23h0A178.89,178.89,0,0,1,231.28,1318.34Z" transform="translate(-51.11 -1317.05)"/><g id="Rectangle_233" data-name="Rectangle 233"><path class="cls-2" d="M3680.38,1317.05H3579a180.18,180.18,0,0,1-.27,360.35H314.94a180.18,180.18,0,0,1-.28-360.35H231.28a180.18,180.18,0,0,0,0,360.35h3449.1c99.51,0,180.18-80.67,180.18-180.17A180.18,180.18,0,0,0,3680.38,1317.05Z" transform="translate(-51.11 -1317.05)"/><path class="cls-1" d="M313.69,1317.56H3578.18c98.82,0,180.26,80.44,180.26,179.66h0c0,99.23-81.44,179.67-180.26,179.67H313.69c-98.82,0-178.93-80.44-178.93-179.67h0C134.76,1398,214.87,1317.56,313.69,1317.56Z" transform="translate(-51.11 -1317.05)"/></g></g></svg>