<svg id="Calque_1" data-name="Calque 1" xmlns="http://www.w3.org/2000/svg" viewBox="0 0 3808.16 360.23"><path d="M3724,49.78H276A180.12,180.12,0,0,0,276,410H3724a180.12,180.12,0,0,0,0-360.23Zm0,357.66H276a177.55,177.55,0,0,1,0-355.09H3724a177.55,177.55,0,0,1,0,355.09Z" transform="translate(-95.92 -49.78)" style="fill:#010101"/><path d="M3641.49,53.39H378.82c-99.48,0-180.12,79-180.12,176.53s80.64,176.52,180.12,176.52H3641.49c99.47,0,180.11-79,180.11-176.52S3741,53.39,3641.49,53.39Z" transform="translate(-95.92 -49.78)" style="fill:#010101"/></svg>