<svg id="Calque_1" data-name="Calque 1" xmlns="http://www.w3.org/2000/svg" viewBox="0 0 251.11 70.22"><defs><style>.cls-1,.cls-2{fill:none;}.cls-2{stroke:#000;}</style></defs><g id="Rectangle_77" data-name="Rectangle 77"><path class="cls-1" d="M35.56,16.15h180a20,20,0,0,1,20,20h0a20,20,0,0,1-20,20h-180a20,20,0,0,1-20-20h0A20,20,0,0,1,35.56,16.15Z"/><path class="cls-2" d="M35.56,16.65h180a19.5,19.5,0,0,1,19.5,19.5h0a19.5,19.5,0,0,1-19.5,19.5h-180a19.5,19.5,0,0,1-19.5-19.5h0A19.5,19.5,0,0,1,35.56,16.65Z"/></g><g id="Tracé_3" data-name="Tracé 3"><path d="M195.56,55.65h-140a19.5,19.5,0,1,1,0-39h140a19.49,19.49,0,0,1,13.78,33.29,19.38,19.38,0,0,1-13.78,5.71Z"/><path d="M55.56,17.15a18.89,18.89,0,0,0-7.4,1.49A19,19,0,0,0,38.05,28.75a19,19,0,0,0,17.51,26.4h140A18.89,18.89,0,0,0,209,49.58a18.61,18.61,0,0,0,4.07-6,19,19,0,0,0-17.5-26.39h-140m0-1h140a20,20,0,0,1,0,40h-140a20,20,0,0,1,0-40Z"/></g></svg>
