<svg id="Composant_70_2" data-name="Composant 70 – 2" xmlns="http://www.w3.org/2000/svg" width="220" height="40" viewBox="0 0 220 40">
  <g id="Rectangle_77" data-name="Rectangle 77" fill="#fff" stroke="#fff" stroke-width="1">
    <rect width="220" height="40" rx="20" stroke="none"/>
    <rect x="0.5" y="0.5" width="219" height="39" rx="19.5" fill="none"/>
  </g>
  <g id="Tracé_3" data-name="Tracé 3" transform="translate(20)">
    <path d="M 160 39.5 L 20 39.5 C 17.36729621887207 39.5 14.81361389160156 38.98450088500977 12.40988636016846 37.96779632568359 C 10.08788681030273 36.98568344116211 8.002431869506836 35.57958984375 6.211431980133057 33.78858947753906 C 4.420409202575684 31.99756813049316 3.014318227767944 29.91211318969727 2.032204627990723 27.59013557434082 C 1.015499949455261 25.18638610839844 0.5 22.63270378112793 0.5 20 C 0.5 17.36729621887207 1.015499949455261 14.81361389160156 2.032204627990723 12.40986347198486 C 3.014318227767944 10.08788681030273 4.420409202575684 8.002431869506836 6.211431980133057 6.211409091949463 C 8.002431869506836 4.420409202575684 10.08788681030273 3.014318227767944 12.40988636016846 2.032204627990723 C 14.81361389160156 1.015499949455261 17.36729621887207 0.5 20 0.5 L 160 0.5 C 162.6327056884766 0.5 165.1863861083984 1.015499949455261 167.5901336669922 2.032204627990723 C 169.912109375 3.014318227767944 171.9975738525391 4.420409202575684 173.7885894775391 6.211409091949463 C 175.57958984375 8.002431869506836 176.9856872558594 10.08788681030273 177.9677886962891 12.40986347198486 C 178.9844970703125 14.81361389160156 179.5 17.36729621887207 179.5 20 C 179.5 22.63270378112793 178.9844970703125 25.18638610839844 177.9677886962891 27.59013557434082 C 176.9856872558594 29.91211318969727 175.57958984375 31.99756813049316 173.7885894775391 33.78858947753906 C 171.9975738525391 35.57958984375 169.912109375 36.98568344116211 167.5901336669922 37.96779632568359 C 165.1863861083984 38.98450088500977 162.6327056884766 39.5 160 39.5 Z" stroke="none"/>
    <path d="M 20 1 C 17.4345703125 1 14.9464111328125 1.502227783203125 12.60462951660156 2.492706298828125 C 10.34225463867188 3.449615478515625 8.310226440429688 4.819728851318359 6.564971923828125 6.564975738525391 C 4.819732666015625 8.310226440429688 3.449615478515625 10.34225082397461 2.492706298828125 12.60463714599609 C 1.502227783203125 14.94640922546387 1 17.43456840515137 1 20 C 1 22.56543159484863 1.502227783203125 25.05359077453613 2.492706298828125 27.39536285400391 C 3.449615478515625 29.65774917602539 4.819732666015625 31.68977355957031 6.564971923828125 33.43502426147461 C 8.310226440429688 35.18027114868164 10.34225463867188 36.55038452148438 12.60462951660156 37.50729370117188 C 14.9464111328125 38.49777221679688 17.4345703125 39 20 39 L 160 39 C 162.5654296875 39 165.0535888671875 38.49777221679688 167.3953704833984 37.50729370117188 C 169.6577453613281 36.55038452148438 171.6897735595703 35.18027114868164 173.4350280761719 33.43502426147461 C 175.1802673339844 31.68977355957031 176.5503845214844 29.65774917602539 177.5072937011719 27.39536285400391 C 178.4977722167969 25.05359077453613 179 22.56543159484863 179 20 C 179 17.43456840515137 178.4977722167969 14.94640922546387 177.5072937011719 12.60463714599609 C 176.5503845214844 10.34225082397461 175.1802673339844 8.310226440429688 173.4350280761719 6.564975738525391 C 171.6897735595703 4.819728851318359 169.6577453613281 3.449615478515625 167.3953704833984 2.492706298828125 C 165.0535888671875 1.502227783203125 162.5654296875 1 160 1 L 20 1 M 20 0 L 160 0 C 171.0457000732422 0 180 8.954296112060547 180 20 C 180 31.04570388793945 171.0457000732422 40 160 40 L 20 40 C 8.954299926757812 40 0 31.04570388793945 0 20 C 0 8.954296112060547 8.954299926757812 0 20 0 Z" stroke="none" fill="#fff"/>
  </g>
</svg>
