<svg id="Calque_1" data-name="Calque 1" xmlns="http://www.w3.org/2000/svg" viewBox="0 0 251.11 70.22"><defs><style>.cls-1,.cls-2{fill:none;}.cls-2{stroke:#000;}</style></defs><g id="Rectangle_77" data-name="Rectangle 77"><path class="cls-1" d="M35.56,15.11h180a20,20,0,0,1,20,20h0a20,20,0,0,1-20,20h-180a20,20,0,0,1-20-20h0A20,20,0,0,1,35.56,15.11Z"/><path class="cls-2" d="M35.56,15.61h180a19.5,19.5,0,0,1,19.5,19.5h0a19.5,19.5,0,0,1-19.5,19.5h-180a19.5,19.5,0,0,1-19.5-19.5h0A19.5,19.5,0,0,1,35.56,15.61Z"/></g><g id="Rectangle_78" data-name="Rectangle 78"><path class="cls-1" d="M55.56,15.11h140a20,20,0,0,1,20,20h0a20,20,0,0,1-20,20h-140a20,20,0,0,1-20-20h0A20,20,0,0,1,55.56,15.11Z"/><path class="cls-2" d="M55.56,15.61h140a19.5,19.5,0,0,1,19.5,19.5h0a19.5,19.5,0,0,1-19.5,19.5h-140a19.5,19.5,0,0,1-19.5-19.5h0A19.5,19.5,0,0,1,55.56,15.61Z"/></g></svg>